<svg xmlns="http://www.w3.org/2000/svg" viewBox="0 0 128 128">
    <path
        d=" M 30 0 L 98 0 C 114.557 0 128 13.443 128 30 L 128 98 C 128 114.557 114.557 128 98 128 L 30 128 C 13.443 128 0 114.557 0 98 L 0 30 C 0 13.443 13.443 0 30 0 Z "
        fill="rgb(0,0,0)" />
    <path
        d=" M 98.835 37.168 C 95.271 33.716 90.858 31.99 86.332 31.99 C 81.804 31.99 77.283 33.716 73.833 37.168 L 68.41 42.59 C 70.3 43.592 72.095 44.788 73.651 46.343 C 74.044 46.736 74.389 47.158 74.744 47.573 L 79.49 42.827 C 81.317 40.999 83.643 39.992 86.332 39.992 C 88.916 39.992 91.345 40.998 93.172 42.826 C 94.999 44.653 96.005 47.082 96.005 49.667 C 96.005 52.251 94.999 54.681 93.172 56.508 L 76.504 73.175 C 74.69 74.891 72.252 76.003 69.676 76.003 C 67.1 76.003 64.662 74.997 62.835 73.17 C 60.998 71.34 59.885 68.914 59.885 66.325 C 59.885 63.738 60.892 61.312 62.719 59.484 L 63.274 59.048 C 63.011 58.561 62.737 58.061 62.336 57.661 C 61.261 56.585 59.848 55.997 58.322 55.997 C 56.83 55.997 55.434 56.581 54.37 57.62 C 50.53 64.367 51.415 73.074 57.169 78.826 C 60.623 82.28 65.149 84.006 69.676 84.006 C 74.2 84.006 78.724 82.28 82.174 78.828 L 98.835 62.162 C 102.392 58.605 104.117 53.908 104.008 49.246 C 103.899 44.756 102.186 40.513 98.835 37.168 Z  M 53.245 80.43 L 48.507 85.169 C 46.681 86.895 44.243 88.008 41.667 88.008 C 39.083 88.008 36.653 87.002 34.826 85.174 C 33 83.347 31.993 80.918 31.993 78.333 C 31.993 75.749 33 73.319 34.826 71.492 L 51.494 54.825 C 53.309 52.996 55.634 51.997 58.322 51.997 C 61.011 51.997 63.337 53.003 65.163 54.83 C 66.992 56.656 67.997 59.086 67.997 61.67 C 67.997 64.255 66.991 66.685 65.163 68.511 L 64.725 68.952 C 64.986 69.444 65.251 69.939 65.658 70.346 C 66.738 71.415 68.163 72.003 69.676 72.003 C 71.167 72.003 72.564 71.419 73.628 70.38 C 77.468 63.633 76.583 54.926 70.828 49.174 C 67.263 45.72 62.849 43.994 58.322 43.994 C 53.796 43.994 49.282 45.72 45.831 49.17 L 29.165 65.838 C 25.714 69.289 23.987 73.813 23.987 78.337 C 23.987 82.861 25.712 87.385 29.165 90.837 C 32.615 94.284 37.141 96.01 41.667 96.01 C 46.192 96.01 50.715 94.284 54.166 90.832 L 59.587 85.41 C 57.699 84.408 55.903 83.212 54.348 81.657 C 53.946 81.268 53.608 80.843 53.245 80.43 Z "
        fill="rgb(255,255,255)" />
</svg>