<svg xmlns="http://www.w3.org/2000/svg" viewBox="0 0 128 128">
    <path
        d=" M 119.718 21.083 C 114.018 15.561 106.959 12.801 99.72 12.801 C 92.477 12.801 85.246 15.561 79.728 21.083 L 71.054 29.755 C 74.077 31.358 76.948 33.271 79.437 35.758 C 80.065 36.387 80.617 37.062 81.185 37.725 L 88.776 30.134 C 91.698 27.21 95.419 25.6 99.72 25.6 C 103.853 25.6 107.738 27.209 110.66 30.133 C 113.582 33.055 115.192 36.94 115.192 41.075 C 115.192 45.208 113.582 49.094 110.66 52.017 L 84 78.675 C 81.099 81.42 77.199 83.199 73.079 83.199 C 68.959 83.199 65.059 81.59 62.137 78.667 C 59.198 75.74 57.418 71.86 57.418 67.719 C 57.418 63.581 59.029 59.701 61.951 56.777 L 62.839 56.079 C 62.418 55.3 61.98 54.501 61.339 53.861 C 59.619 52.14 57.359 51.199 54.918 51.199 C 52.532 51.199 50.299 52.133 48.597 53.795 C 42.455 64.587 43.871 78.514 53.074 87.714 C 58.599 93.239 65.838 95.999 73.079 95.999 C 80.315 95.999 87.551 93.239 93.069 87.717 L 119.718 61.06 C 125.407 55.371 128.167 47.858 127.992 40.401 C 127.818 33.22 125.078 26.433 119.718 21.083 Z  M 46.798 90.28 L 39.219 97.859 C 36.299 100.62 32.399 102.4 28.279 102.4 C 24.146 102.4 20.259 100.791 17.337 97.867 C 14.416 94.945 12.805 91.06 12.805 86.925 C 12.805 82.792 14.416 78.906 17.337 75.983 L 43.997 49.325 C 46.9 46.399 50.619 44.801 54.918 44.801 C 59.219 44.801 62.94 46.41 65.86 49.333 C 68.786 52.253 70.393 56.14 70.393 60.273 C 70.393 64.408 68.784 68.295 65.86 71.215 L 65.16 71.921 C 65.577 72.708 66.001 73.499 66.652 74.15 C 68.379 75.86 70.659 76.801 73.079 76.801 C 75.464 76.801 77.698 75.867 79.4 74.205 C 85.542 63.413 84.126 49.486 74.921 40.286 C 69.219 34.761 62.159 32.001 54.918 32.001 C 47.679 32.001 40.459 34.761 34.939 40.28 L 8.282 66.94 C 2.762 72.46 0 79.696 0 86.932 C 0 94.168 2.759 101.404 8.282 106.925 C 13.8 112.439 21.04 115.199 28.279 115.199 C 35.517 115.199 42.751 112.439 48.271 106.917 L 56.942 98.245 C 53.922 96.642 51.049 94.729 48.562 92.242 C 47.919 91.62 47.378 90.94 46.798 90.28 Z "
        fill="rgb(255,255,255)" />
</svg>