<svg xmlns="http://www.w3.org/2000/svg" viewBox="0 0 128 128">
    <path
        d=" M 56.528 112.938 C 57.858 111.629 58.607 109.848 58.607 107.989 C 58.607 106.13 57.858 104.349 56.528 103.04 L 24.189 70.978 L 120.97 70.978 C 124.853 70.978 128 67.858 128 64.008 C 128 60.158 124.853 57.038 120.97 57.038 L 24.33 57.038 L 56.528 25.186 C 59.253 22.466 59.253 18.075 56.528 15.357 C 53.786 12.654 49.357 12.654 46.615 15.357 L 1.904 59.686 C 0.688 60.843 0 62.442 0 64.112 C 0 65.784 0.688 67.382 1.904 68.539 L 46.544 112.938 C 47.864 114.258 49.661 115 51.536 115 C 53.411 115 55.208 114.258 56.528 112.938 Z "
        fill="rgb(255,255,255)" />
</svg>