<svg xmlns="http://www.w3.org/2000/svg" viewBox="0 0 128 128">
    <path
        d="M 30 0 L 98 0 C 114.557 0 128 13.443 128 30 L 128 98 C 128 114.557 114.557 128 98 128 L 30 128 C 13.443 128 0 114.557 0 98 L 0 30 C 0 13.443 13.443 0 30 0 Z"
        fill="rgb(0,0,0)" />
    <path
        d=" M 58.367 92.565 C 59.199 91.747 59.667 90.634 59.667 89.472 C 59.667 88.311 59.199 87.197 58.367 86.379 L 38.156 66.34 L 98.644 66.34 C 101.07 66.34 103.038 64.39 103.038 61.984 C 103.038 59.578 101.07 57.628 98.644 57.628 L 38.243 57.628 L 58.367 37.72 C 60.071 36.021 60.071 33.276 58.367 31.577 C 56.653 29.888 53.886 29.888 52.172 31.577 L 24.227 59.283 C 23.467 60.006 23.038 61.005 23.038 62.049 C 23.038 63.094 23.467 64.093 24.227 64.816 L 52.128 92.565 C 52.953 93.39 54.076 93.854 55.248 93.854 C 56.419 93.854 57.542 93.39 58.367 92.565 Z "
        fill="rgb(255,255,255)" />
</svg>