<svg xmlns="http://www.w3.org/2000/svg" viewBox="0 0 128 128">
    <path
        d=" M 108.523 23.475 C 108.488 23.405 108.429 23.352 108.357 23.323 C 100.058 19.514 91.3 16.799 82.302 15.245 C 82.136 15.213 81.968 15.293 81.884 15.443 C 80.692 17.606 79.61 19.831 78.642 22.103 C 68.942 20.632 59.077 20.632 49.378 22.103 C 48.403 19.824 47.303 17.601 46.084 15.443 C 45.997 15.296 45.831 15.218 45.664 15.245 C 36.666 16.796 27.908 19.51 19.609 23.323 C 19.539 23.353 19.48 23.405 19.438 23.469 C 2.844 48.251 -1.702 72.422 0.529 96.294 C 0.542 96.413 0.601 96.521 0.696 96.593 C 10.357 103.748 21.165 109.21 32.657 112.744 C 32.822 112.794 33.001 112.736 33.105 112.597 C 35.573 109.239 37.761 105.683 39.645 101.965 C 39.696 101.862 39.702 101.741 39.659 101.634 C 39.619 101.526 39.531 101.441 39.422 101.401 C 35.975 100.081 32.636 98.492 29.438 96.645 C 29.32 96.576 29.245 96.451 29.237 96.315 C 29.228 96.179 29.289 96.048 29.397 95.963 C 30.069 95.462 30.739 94.939 31.38 94.41 C 31.496 94.314 31.657 94.294 31.794 94.354 C 52.743 103.914 75.421 103.914 96.121 94.354 C 96.259 94.289 96.422 94.31 96.54 94.406 C 97.181 94.934 97.853 95.462 98.528 95.963 C 98.637 96.046 98.698 96.177 98.691 96.313 C 98.683 96.449 98.61 96.574 98.491 96.645 C 95.302 98.506 91.961 100.097 88.502 101.397 C 88.395 101.438 88.307 101.523 88.267 101.632 C 88.226 101.741 88.232 101.862 88.285 101.965 C 90.199 105.662 92.384 109.214 94.82 112.591 C 94.921 112.733 95.101 112.794 95.268 112.743 C 106.781 109.222 117.608 103.759 127.282 96.593 C 127.378 96.525 127.437 96.417 127.448 96.301 C 130.119 68.701 122.978 44.727 108.523 23.475 Z  M 42.774 81.76 C 36.466 81.76 31.269 75.972 31.269 68.863 C 31.269 61.755 36.365 55.967 42.774 55.967 C 49.23 55.967 54.378 61.806 54.277 68.863 C 54.277 75.972 49.179 81.76 42.774 81.76 Z  M 85.305 81.76 C 78.999 81.76 73.802 75.972 73.802 68.863 C 73.802 61.755 78.898 55.967 85.305 55.967 C 91.763 55.967 96.908 61.806 96.808 68.863 C 96.808 75.972 91.763 81.76 85.305 81.76 Z "
        fill="rgb(255,255,255)" />
</svg>