<svg xmlns="http://www.w3.org/2000/svg" viewBox="0 0 128 128">
    <path
        d=" M 30.08 0 L 97.92 0 C 114.522 0 128 13.478 128 30.08 L 128 97.92 C 128 114.522 114.522 128 97.92 128 L 30.08 128 C 13.478 128 0 114.522 0 97.92 L 0 30.08 C 0 13.478 13.478 0 30.08 0 Z "
        fill="rgb(0,0,0)" />
    <path
        d=" M 91.818 38.68 C 91.796 38.636 91.759 38.603 91.714 38.585 C 86.529 36.205 81.057 34.509 75.435 33.538 C 75.331 33.518 75.226 33.568 75.174 33.662 C 74.429 35.013 73.753 36.403 73.148 37.823 C 67.088 36.904 60.924 36.904 54.864 37.823 C 54.255 36.399 53.568 35.01 52.806 33.662 C 52.752 33.57 52.648 33.521 52.544 33.538 C 46.922 34.507 41.45 36.203 36.265 38.585 C 36.221 38.604 36.184 38.636 36.158 38.676 C 25.79 54.16 22.95 69.262 24.344 84.177 C 24.352 84.251 24.389 84.319 24.448 84.364 C 30.484 88.834 37.237 92.247 44.417 94.455 C 44.52 94.486 44.632 94.45 44.697 94.363 C 46.239 92.265 47.606 90.043 48.783 87.72 C 48.815 87.656 48.819 87.58 48.792 87.513 C 48.767 87.446 48.712 87.393 48.644 87.368 C 46.49 86.543 44.404 85.55 42.406 84.396 C 42.332 84.353 42.285 84.275 42.28 84.19 C 42.275 84.105 42.313 84.023 42.38 83.97 C 42.8 83.657 43.219 83.33 43.619 83 C 43.692 82.94 43.792 82.927 43.878 82.965 C 56.967 88.938 71.136 88.938 84.069 82.965 C 84.155 82.924 84.257 82.937 84.331 82.997 C 84.731 83.327 85.151 83.657 85.573 83.97 C 85.641 84.022 85.679 84.104 85.675 84.189 C 85.67 84.274 85.624 84.352 85.55 84.396 C 83.557 85.559 81.47 86.553 79.309 87.365 C 79.242 87.391 79.187 87.444 79.162 87.512 C 79.136 87.58 79.14 87.656 79.173 87.72 C 80.369 90.03 81.734 92.249 83.256 94.359 C 83.319 94.448 83.432 94.486 83.536 94.454 C 90.729 92.254 97.494 88.841 103.538 84.364 C 103.598 84.321 103.635 84.254 103.642 84.181 C 105.311 66.937 100.849 51.958 91.818 38.68 Z  M 50.738 75.096 C 46.797 75.096 43.55 71.48 43.55 67.038 C 43.55 62.597 46.734 58.981 50.738 58.981 C 54.772 58.981 57.988 62.629 57.925 67.038 C 57.925 71.48 54.74 75.096 50.738 75.096 Z  M 77.311 75.096 C 73.371 75.096 70.124 71.48 70.124 67.038 C 70.124 62.597 73.308 58.981 77.311 58.981 C 81.346 58.981 84.561 62.629 84.498 67.038 C 84.498 71.48 81.346 75.096 77.311 75.096 Z "
        fill="rgb(255,255,255)" />
</svg>