<svg xmlns="http://www.w3.org/2000/svg" viewBox="0 0 128 128">
    <path
        d="M 14 25.649 L 14 102.351 C 14 106.197 10.817 109 7 109 L 7 109 C 3.123 109 0 106.197 0 102.351 L 0 25.649 C 0 21.8 3.123 18.68 7 18.68 L 7 18.68 C 10.817 18.68 14 21.8 14 25.649 Z"
        fill="white" />
    <path
        d=" M 79.386 106.898 C 80.716 105.589 81.464 103.808 81.464 102 C 81.464 100 80.716 98.309 79.386 97 L 52 70.813 L 120.97 70.813 C 124.853 70.813 128 67.693 128 63.843 C 128 59.993 124.853 56.873 120.97 56.873 L 52.18 56.873 L 79.386 30.829 C 82.111 28.109 82.111 23.718 79.386 21 C 76.644 18.297 72.215 18.297 69.472 21 L 29.754 59.521 C 28.538 60.678 27.85 62.277 27.85 63.947 C 27.85 65.619 28.538 67.217 29.754 68.374 L 69.402 106.898 C 70.722 108.218 72.519 108.96 74.394 108.96 C 76.269 108.96 78 108.218 79.386 106.898 Z "
        fill="white" />
</svg>