<svg xmlns="http://www.w3.org/2000/svg" viewBox="0 0 128 128">
    <path
        d=" M 107.999 80.001 L 100 80.001 C 97.791 80.001 95.999 81.79 95.999 84.001 L 95.999 112 L 16 112 L 16 32.001 L 52 32.001 C 54.209 32.001 56.001 30.209 56.001 28 L 56.001 20.001 C 56.001 17.79 54.209 16 52 16 L 12 16 C 5.372 16 0 21.373 0 28 L 0 116 C 0 122.628 5.372 128 12 128 L 100 128 C 106.627 128 112 122.628 112 116 L 112 84.001 C 112 81.79 110.21 80.001 107.999 80.001 Z  M 121.999 0 L 90 0 C 84.658 0 81.987 6.478 85.751 10.25 L 94.683 19.183 L 33.751 80.092 C 32.622 81.219 31.985 82.748 31.985 84.343 C 31.985 85.938 32.622 87.466 33.751 88.594 L 39.417 94.249 C 40.544 95.378 42.073 96.015 43.668 96.015 C 45.262 96.015 46.791 95.378 47.917 94.249 L 108.82 33.33 L 117.75 42.249 C 121.5 46.001 128 43.375 128 38.002 L 128 6.001 C 128 2.686 125.314 0 121.999 0 Z "
        fill="rgb(255,255,255)" />
</svg>