<svg xmlns="http://www.w3.org/2000/svg" viewBox="0 0 128 128">
    <path
        d=" M 30 0 L 98 0 C 114.557 0 128 13.443 128 30 L 128 98 C 128 114.557 114.557 128 98 128 L 30 128 C 13.443 128 0 114.557 0 98 L 0 30 C 0 13.443 13.443 0 30 0 Z "
        fill="rgb(0,0,0)" />
    <path
        d=" M 91.503 74.002 L 86.503 74.002 C 85.122 74.002 84.002 75.12 84.002 76.502 L 84.002 94.004 L 33.996 94.004 L 33.996 43.998 L 56.499 43.998 C 57.88 43.998 59 42.878 59 41.497 L 59 36.497 C 59 35.115 57.88 33.996 56.499 33.996 L 31.496 33.996 C 27.353 33.996 23.995 37.355 23.995 41.497 L 23.995 96.504 C 23.995 100.647 27.353 104.005 31.496 104.005 L 86.503 104.005 C 90.645 104.005 94.004 100.647 94.004 96.504 L 94.004 76.502 C 94.004 75.12 92.885 74.002 91.503 74.002 Z  M 100.254 23.995 L 80.252 23.995 C 76.913 23.995 75.243 28.044 77.596 30.402 L 83.179 35.986 L 45.092 74.059 C 44.386 74.763 43.988 75.719 43.988 76.716 C 43.988 77.713 44.386 78.668 45.092 79.373 L 48.634 82.908 C 49.338 83.614 50.294 84.012 51.291 84.012 C 52.287 84.012 53.243 83.614 53.947 82.908 L 92.016 44.829 L 97.598 50.404 C 99.942 52.749 104.005 51.108 104.005 47.749 L 104.005 27.746 C 104.005 25.674 102.326 23.995 100.254 23.995 Z "
        fill="rgb(255,255,255)" />
</svg>