<svg xmlns="http://www.w3.org/2000/svg" viewBox="0 0 128 128">
    <path
        d="M 30 0 L 98 0 C 114.557 0 128 13.443 128 30 L 128 98 C 128 114.557 114.557 128 98 128 L 30 128 C 13.443 128 0 114.557 0 98 L 0 30 C 0 13.443 13.443 0 30 0 Z"
        fill="rgb(0,0,0)" />
    <path
        d=" M 49.418 128 Q 49.447 118.475 49.418 113.614 C 33.216 117.135 29.858 105.943 29.858 105.943 C 27.211 99.215 23.394 97.423 23.394 97.423 C 18.107 93.812 23.791 93.881 23.791 93.881 C 29.636 94.292 32.717 99.884 32.717 99.884 C 37.914 108.779 46.348 106.209 49.666 104.723 C 50.198 100.959 51.705 98.392 53.37 96.935 C 40.434 95.465 26.836 90.469 26.836 68.151 C 26.836 61.791 29.105 56.595 32.83 52.525 C 32.229 51.054 30.226 45.13 33.402 37.11 C 33.402 37.11 38.293 35.544 49.418 43.084 C 54.065 41.792 59.051 41.147 64.004 41.126 C 68.953 41.147 73.935 41.792 78.589 43.084 C 89.714 35.548 94.598 37.11 94.598 37.11 C 97.774 45.13 95.774 51.054 95.177 52.525 C 98.903 56.595 101.164 61.791 101.164 68.151 C 101.164 90.528 87.544 95.45 74.565 96.888 C 76.655 98.69 78.553 102.186 78.553 107.618 Q 78.553 114.899 78.589 128 L 49.418 128 Z "
        fill-rule="evenodd" fill="rgb(255,255,255)" />
</svg>