<svg xmlns="http://www.w3.org/2000/svg" viewBox="0 0 128 128">
    <path
        d=" M 47.497 128 Q 47.538 114.606 47.497 107.77 C 24.714 112.722 19.992 96.983 19.992 96.983 C 16.27 87.522 10.902 85.002 10.902 85.002 C 3.468 79.925 11.461 80.022 11.461 80.022 C 19.68 80.6 24.012 88.463 24.012 88.463 C 31.32 100.971 43.18 97.357 47.846 95.268 C 48.594 89.975 50.713 86.365 53.055 84.316 C 34.864 82.249 15.742 75.224 15.742 43.84 C 15.742 34.896 18.933 27.59 24.171 21.866 C 23.326 19.798 20.51 11.467 24.976 0.19 C 24.976 0.19 31.853 -2.012 47.497 8.59 C 54.032 6.774 61.044 5.867 68.008 5.837 C 74.968 5.867 81.974 6.774 88.518 8.59 C 104.162 -2.007 111.03 0.19 111.03 0.19 C 115.496 11.467 112.684 19.798 111.844 21.866 C 117.084 27.59 120.263 34.896 120.263 43.84 C 120.263 75.307 101.111 82.228 82.859 84.25 C 85.798 86.784 88.467 91.7 88.467 99.339 Q 88.467 109.577 88.518 128 L 47.497 128 Z "
        fill-rule="evenodd" fill="rgb(255,255,255)" />
</svg>