<svg xmlns="http://www.w3.org/2000/svg" viewBox="0 0 128 128">
    <path
        d="M 30 0 L 98 0 C 114.557 0 128 13.443 128 30 L 128 98 C 128 114.557 114.557 128 98 128 L 30 128 C 13.443 128 0 114.557 0 98 L 0 30 C 0 13.443 13.443 0 30 0 Z"
        fill="rgb(0,0,0)" />
    <path
        d=" M 64 24 C 61.444 24.001 59.008 25.084 57.293 26.979 C 55.579 28.875 54.746 31.407 55 33.95 L 58.5 69.02 C 58.744 71.876 61.133 74.071 64 74.071 C 66.867 74.071 69.256 71.876 69.5 69.02 L 73 33.95 C 73.254 31.407 72.421 28.875 70.707 26.979 C 68.992 25.084 66.556 24.001 64 24 Z "
        fill="rgb(255,255,255)" />
    <circle cx="64" cy="94" r="10" fill="rgb(255,255,255)" />
</svg>