<svg xmlns="http://www.w3.org/2000/svg" viewBox="0 0 128 128">
    <path
        d="M 114 102.351 L 114 25.649 C 114 21.803 117.183 18.68 121 18.68 L 121 18.68 C 124.877 18.68 128 21.803 128 25.649 L 128 102.351 C 128 106.197 124.877 109.32 121 109.32 L 121 109.32 C 117.183 109.32 114 106.197 114 102.351 Z"
        fill="white" />
    <path
        d=" M 48.614 21 C 47.284 22.411 46.536 24.192 46.536 26 C 46.536 27.91 47.284 29.691 48.614 31 L 75.961 57.187 L 7 57.187 C 3.147 57.187 0 60.307 0 64.157 C 0 68 3.147 71 7 71 L 75.82 71 L 48.614 97.171 C 45.889 99.891 45.889 104.282 48.614 107 C 51.356 109.703 55.785 109.703 58.528 107 L 98.246 68.479 C 99.462 67.322 100.15 65.723 100.15 64 C 100.15 62.381 99.462 60.783 98.246 59.626 L 58.598 21 C 57.278 19.782 55.481 19 53.606 19 C 51.731 19 49.934 19.782 48.614 21 Z "
        fill="white" />
</svg>