<svg xmlns="http://www.w3.org/2000/svg" viewBox="0 0 128 128">
    <path
        d="M 30 0 L 98 0 C 114.557 0 128 13.443 128 30 L 128 98 C 128 114.557 114.557 128 98 128 L 30 128 C 13.443 128 0 114.557 0 98 L 0 30 C 0 13.443 13.443 0 30 0 Z"
        fill="rgb(0,0,0)" />
    <path
        d=" M 68.67 33.517 C 67.839 34.335 67.371 35.448 67.371 36.61 C 67.371 37.772 67.839 38.885 68.67 39.703 L 88.882 59.742 L 28.394 59.742 C 25.967 59.742 24 61.692 24 64.098 C 24 66.504 25.967 68.454 28.394 68.454 L 88.794 68.454 L 68.67 88.362 C 66.967 90.062 66.967 92.806 68.67 94.505 C 70.384 96.194 73.152 96.194 74.866 94.505 L 102.81 66.799 C 103.57 66.076 104 65.077 104 64.033 C 104 62.988 103.57 61.989 102.81 61.266 L 74.91 33.517 C 74.085 32.692 72.962 32.228 71.79 32.228 C 70.618 32.228 69.495 32.692 68.67 33.517 Z "
        fill="rgb(255,255,255)" />
</svg>