<svg xmlns="http://www.w3.org/2000/svg" viewBox="0 0 128 128">
    <path
        d=" M 71.472 15.392 C 70.142 16.701 69.394 18.482 69.394 20.341 C 69.394 22.2 70.142 23.981 71.472 25.29 L 103.811 57.352 L 7.03 57.352 C 3.147 57.352 0 60.472 0 64.322 C 0 68.172 3.147 71.292 7.03 71.292 L 103.67 71.292 L 71.472 103.144 C 68.747 105.864 68.747 110.255 71.472 112.973 C 74.214 115.676 78.643 115.676 81.386 112.973 L 126.096 68.644 C 127.312 67.487 128 65.888 128 64.218 C 128 62.546 127.312 60.948 126.096 59.791 L 81.456 15.392 C 80.136 14.072 78.339 13.33 76.464 13.33 C 74.589 13.33 72.792 14.072 71.472 15.392 Z "
        fill="rgb(255,255,255)" />
</svg>