<svg xmlns="http://www.w3.org/2000/svg" viewBox="0 0 128 128">
    <path
        d="M 30 0 L 98 0 C 114.557 0 128 13.443 128 30 L 128 98 C 128 114.557 114.557 128 98 128 L 30 128 C 13.443 128 0 114.557 0 98 L 0 30 C 0 13.443 13.443 0 30 0 Z"
        fill="rgb(0,0,0)" />
    <path
        d=" M 61.766 103.502 C 63.045 104.141 64.643 104.141 65.922 103.502 C 101.407 86.079 103.965 52.191 103.965 42.441 C 103.965 40.843 102.846 39.404 101.247 38.765 L 65.602 24.379 C 64.483 23.899 63.205 23.899 62.086 24.379 L 26.6 38.765 C 25.162 39.404 24.043 40.843 24.043 42.441 C 23.883 52.032 25.961 86.079 61.766 103.502 Z  M 49.298 57.147 L 59.528 66.418 L 78.39 49.154 L 84.784 54.749 L 59.528 77.926 L 43.064 62.901 L 49.298 57.147 Z "
        fill="rgb(255,255,255)" />
</svg>