<svg xmlns="http://www.w3.org/2000/svg" viewBox="0 0 128 128">
    <path
        d=" M 106.24 0 L 21.76 0 C 14.08 0 7.68 6.144 7.68 13.824 L 7.68 114.176 C 7.68 121.856 14.08 128 21.76 128 L 106.24 128 C 113.92 128 120.32 121.856 120.32 114.176 L 120.32 13.824 C 120.32 6.144 113.92 0 106.24 0 Z  M 101.632 98.304 C 101.632 99.584 100.608 100.608 99.328 100.608 L 27.904 99.584 C 26.624 99.584 25.6 98.56 25.6 97.28 L 25.6 92.672 C 25.6 91.392 26.624 90.368 27.904 90.368 L 99.328 91.392 C 100.608 91.392 101.632 92.416 101.632 93.696 L 101.632 98.304 Z  M 101.632 70.912 C 101.632 72.192 100.608 73.216 99.328 73.216 L 27.904 73.216 C 26.624 73.216 25.6 72.192 25.6 70.912 L 25.6 66.304 C 25.6 65.024 26.624 64 27.904 64 L 99.328 64 C 100.608 64 101.632 65.024 101.632 66.304 L 101.632 70.912 Z  M 101.632 43.52 C 101.632 44.8 100.608 45.824 99.328 45.824 L 27.904 45.824 C 26.624 45.824 25.6 44.8 25.6 43.52 L 25.6 38.912 C 25.6 37.632 26.624 36.608 27.904 36.608 L 99.328 36.608 C 100.608 36.608 101.632 37.632 101.632 38.912 L 101.632 43.52 Z "
        fill="rgb(255,255,255)" />
</svg>