<svg xmlns="http://www.w3.org/2000/svg" viewBox="0 0 128 128">
    <path
        d="M 30 0 L 98 0 C 114.557 0 128 13.443 128 30 L 128 98 C 128 114.557 114.557 128 98 128 L 30 128 C 13.443 128 0 114.557 0 98 L 0 30 C 0 13.443 13.443 0 30 0 Z"
        fill="rgb(0,0,0)" />
    <path
        d=" M 90.4 24 L 37.6 24 C 32.8 24 28.8 27.84 28.8 32.64 L 28.8 95.36 C 28.8 100.16 32.8 104 37.6 104 L 90.4 104 C 95.2 104 99.2 100.16 99.2 95.36 L 99.2 32.64 C 99.2 27.84 95.2 24 90.4 24 Z  M 87.52 85.44 C 87.52 86.24 86.88 86.88 86.08 86.88 L 41.44 86.24 C 40.64 86.24 40 85.6 40 84.8 L 40 81.92 C 40 81.12 40.64 80.48 41.44 80.48 L 86.08 81.12 C 86.88 81.12 87.52 81.76 87.52 82.56 L 87.52 85.44 Z  M 87.52 68.32 C 87.52 69.12 86.88 69.76 86.08 69.76 L 41.44 69.76 C 40.64 69.76 40 69.12 40 68.32 L 40 65.44 C 40 64.64 40.64 64 41.44 64 L 86.08 64 C 86.88 64 87.52 64.64 87.52 65.44 L 87.52 68.32 Z  M 87.52 51.2 C 87.52 52 86.88 52.64 86.08 52.64 L 41.44 52.64 C 40.64 52.64 40 52 40 51.2 L 40 48.32 C 40 47.52 40.64 46.88 41.44 46.88 L 86.08 46.88 C 86.88 46.88 87.52 47.52 87.52 48.32 L 87.52 51.2 Z "
        fill="rgb(255,255,255)" />
</svg>