<?xml version="1.0" encoding="utf-8" ?>
<svg xmlns="http://www.w3.org/2000/svg" xmlns:xlink="http://www.w3.org/1999/xlink" width="1102" height="1074">
	<path fill="#D0322B" transform="scale(1.62525 1.62525)" d="M31.9158 223.838L31.822 145.413L31.8032 122.832C31.7997 114.666 31.3636 106.262 33.2771 98.2635C36.9948 82.7233 44.9996 69.1018 56.1902 57.7734C70.9343 42.8477 92.8319 35.0022 113.547 34.9265L440.068 35.0266L529.663 34.9592L555.14 34.9478C563.207 34.9532 571.361 34.7802 579.348 36.1131C595.972 38.8871 610.715 47.4701 622.512 59.2767C636.08 72.7238 644.349 90.6074 645.806 109.653C646.409 117.394 646.002 125.412 645.981 133.183L645.958 171.705L645.73 395.032L645.775 478.994L645.739 515.776C645.724 522.429 646.086 529.424 645.412 536.036C644.781 542.23 643.429 548.506 641.73 554.494C637.916 567.94 629.452 581.495 619.611 591.35C607.374 603.605 591.596 610.534 574.699 613.287C568.842 614.241 562.807 613.949 556.891 613.952L533.231 613.957L454.996 614.071L200.123 614.197L148.014 613.917L123.058 613.823C118.08 613.8 112.956 613.995 108.005 613.481C90.3684 611.653 70.6578 602.632 58.1737 590.1C57.074 588.996 55.9974 587.827 55.1752 586.495C49.5138 579.843 45.0338 572.653 41.1455 564.845C38.051 557.27 34.6413 548.98 33.382 540.869C31.9555 531.681 32.073 522.526 32.0879 513.267L32.1226 487.419L32.0534 398.167L31.9158 223.838Z"/>
	<defs>
		<linearGradient id="gradient_0" gradientUnits="userSpaceOnUse" x1="350.65259" y1="613.41101" x2="350.53549" y2="398.17566">
			<stop offset="0" stop-color="#121415"/>
			<stop offset="1" stop-color="#361113"/>
		</linearGradient>
	</defs>
	<path fill="url(#gradient_0)" transform="scale(1.62525 1.62525)" d="M327.567 396.733C329.06 397.733 330.388 397.744 332.122 397.807C344.649 398.266 357.307 397.905 369.844 397.897L438.707 397.885L645.038 397.891C645.614 397.296 645.61 395.88 645.73 395.032L645.775 478.994L645.739 515.776C645.724 522.429 646.086 529.424 645.412 536.036C644.781 542.23 643.429 548.506 641.73 554.494C637.916 567.94 629.452 581.495 619.611 591.35C607.374 603.605 591.596 610.534 574.699 613.287C568.842 614.241 562.807 613.949 556.891 613.952L533.231 613.957L454.996 614.071L200.123 614.197L148.014 613.917L123.058 613.823C118.08 613.8 112.956 613.995 108.005 613.481C90.3684 611.653 70.6578 602.632 58.1737 590.1C57.074 588.996 55.9974 587.827 55.1752 586.495C57.6169 585.292 60.0084 583.245 62.2654 581.698L78.0406 570.826L131.971 533.333L327.567 396.733Z"/>
	<defs>
		<linearGradient id="gradient_1" gradientUnits="userSpaceOnUse" x1="293.53201" y1="397.15466" x2="291.05652" y2="223.98749">
			<stop offset="0" stop-color="#5E1616"/>
			<stop offset="1" stop-color="#9C2220"/>
		</linearGradient>
	</defs>
	<path fill="url(#gradient_1)" transform="scale(1.62525 1.62525)" d="M31.9158 223.838C32.4498 224.733 32.2779 226.036 32.27 227.062L393.765 226.998L505.162 226.988L537.137 227.012C542.68 227.041 548.489 227.552 553.993 227.046C537.644 237.756 520.248 247.272 503.326 257.047L422.807 303.424C369.961 333.668 318.04 365.5 267.116 398.877L266.501 398.188C263.079 397.668 259.29 397.937 255.821 397.931L236.346 397.925L169.914 397.9L76.9334 397.929L48.8393 397.896C43.293 397.889 37.5712 397.62 32.0534 398.167L31.9158 223.838Z"/>
	<defs>
		<linearGradient id="gradient_2" gradientUnits="userSpaceOnUse" x1="488.89957" y1="399.99503" x2="484.84082" y2="175.32768">
			<stop offset="0" stop-color="#5B1616"/>
			<stop offset="1" stop-color="#AC2523"/>
		</linearGradient>
	</defs>
	<path fill="url(#gradient_2)" transform="scale(1.62525 1.62525)" d="M623.269 186.653C623.334 186.559 623.385 186.453 623.465 186.371C624.112 185.717 643.028 172.562 644.041 172.04C644.667 171.717 645.27 171.715 645.958 171.705L645.73 395.032C645.61 395.88 645.614 397.296 645.038 397.891L438.707 397.885L369.844 397.897C357.307 397.905 344.649 398.266 332.122 397.807C330.388 397.744 329.06 397.733 327.567 396.733C335.277 390.849 343.578 385.755 351.32 379.909C355.04 377.622 358.604 374.814 362.178 372.291L382.993 357.611C406.966 340.686 430.826 323.603 454.573 306.362C466.278 298.938 477.326 289.993 488.58 281.876L536.555 247.495C550.686 237.344 564.817 226.994 579.332 217.402C593.606 206.703 608.655 196.893 623.269 186.653Z"/>
	<path fill="#841414" transform="scale(1.62525 1.62525)" d="M623.269 186.653C623.116 187.268 623.137 187.898 622.577 188.246C622.444 188.328 622.304 188.399 622.168 188.477C618.464 190.593 614.883 193.451 611.368 195.898L588.483 211.896C585.759 213.783 582.891 216.391 580.006 217.905L579.332 217.402C593.606 206.703 608.655 196.893 623.269 186.653Z"/>
	<defs>
		<linearGradient id="gradient_3" gradientUnits="userSpaceOnUse" x1="149.41524" y1="563.05389" x2="148.95403" y2="398.19485">
			<stop offset="0" stop-color="#1E1414"/>
			<stop offset="1" stop-color="#361113"/>
		</linearGradient>
	</defs>
	<path fill="url(#gradient_3)" transform="scale(1.62525 1.62525)" d="M32.0534 398.167C37.5712 397.62 43.293 397.889 48.8393 397.896L76.9334 397.929L169.914 397.9L236.346 397.925L255.821 397.931C259.29 397.937 263.079 397.668 266.501 398.188L267.116 398.877C204.976 441.319 143.958 485.379 84.1234 531.013C73.7084 538.994 63.3486 547.047 53.0445 555.171C49.0435 558.341 45.2046 561.761 41.1455 564.845C38.051 557.27 34.6413 548.98 33.382 540.869C31.9555 531.681 32.073 522.526 32.0879 513.267L32.1226 487.419L32.0534 398.167Z"/>
	<path fill="#DA5862" transform="scale(1.62525 1.62525)" d="M351.32 379.909L351.501 379.179C354.234 376.44 361.058 372.23 364.535 369.732L402.797 342.716C416.358 333.045 429.732 323.062 443.47 313.658C446.996 311.244 450.332 308.114 454.112 306.133L454.573 306.362C430.826 323.603 406.966 340.686 382.993 357.611L362.178 372.291C358.604 374.814 355.04 377.622 351.32 379.909Z"/>
</svg>
